
<svg
xmlns="http://www.w3.org/2000/svg"
width="1200"
height="360"
viewBox="0 0 1200 360"
>

<rect
width="100%"
height="100%"
rx="12"
fill="#0d1117"
stroke="#30363d"
stroke-width="2"
/>

<style>

text {
font-family:
-apple-system,
BlinkMacSystemFont,
"Segoe UI",
sans-serif;
}

.big {
fill:#f0f6fc;
font-size:36px;
font-weight:700;
}

.label {
fill:#f0f6fc;
font-size:15px;
font-weight:600;
}

.date {
fill:#39d353;
font-size:11px;
}

.title {
fill:#2f81f7;
font-size:17px;
font-weight:600;
}

.axis {
fill:#2f81f7;
font-size:8px;
}

</style>


<line
x1="235"
y1="65"
x2="235"
y2="285"
stroke="#39d353"
/>


<line
x1="445"
y1="65"
x2="445"
y2="285"
stroke="#39d353"
/>


<text
x="130"
y="130"
text-anchor="middle"
class="big"
>
427
</text>


<text
x="130"
y="180"
text-anchor="middle"
class="label"
>
Total Contributions
</text>


<text
x="130"
y="220"
text-anchor="middle"
class="date"
>
Sep 4, 2025 – Present
</text>


<circle
cx="340"
cy="120"
r="45"
fill="none"
stroke="#19324f"
stroke-width="8"
/>


<circle
cx="340"
cy="120"
r="45"
fill="none"
stroke="#2f81f7"
stroke-width="8"
stroke-linecap="round"
stroke-dasharray="252 300"
transform="rotate(-90 340 120)"
/>


<text
x="340"
y="132"
text-anchor="middle"
class="big"
>
9
</text>


<text
x="340"
y="205"
text-anchor="middle"
class="label"
>
Current Streak
</text>


<text
x="340"
y="240"
text-anchor="middle"
class="date"
>
Aug 25 – Sep 2
</text>


<text
x="550"
y="130"
text-anchor="middle"
class="big"
>
10
</text>


<text
x="550"
y="180"
text-anchor="middle"
class="label"
>
Longest Streak
</text>


<text
x="550"
y="220"
text-anchor="middle"
class="date"
>
Feb 17 – Feb 26
</text>


<text
x="917.5"
y="45"
text-anchor="middle"
class="title"
>
Archan Kundu Chowdhury's Contribution Graph
</text>


<line
x1="690"
y1="270.0"
x2="1145"
y2="270.0"
stroke="#18304a"
stroke-dasharray="2 3"
/>


<text
x="680"
y="273.0"
text-anchor="end"
class="axis"
>
0
</text>


<line
x1="690"
y1="233.0"
x2="1145"
y2="233.0"
stroke="#18304a"
stroke-dasharray="2 3"
/>


<text
x="680"
y="236.0"
text-anchor="end"
class="axis"
>
4
</text>


<line
x1="690"
y1="196.0"
x2="1145"
y2="196.0"
stroke="#18304a"
stroke-dasharray="2 3"
/>


<text
x="680"
y="199.0"
text-anchor="end"
class="axis"
>
8
</text>


<line
x1="690"
y1="159.0"
x2="1145"
y2="159.0"
stroke="#18304a"
stroke-dasharray="2 3"
/>


<text
x="680"
y="162.0"
text-anchor="end"
class="axis"
>
11
</text>


<line
x1="690"
y1="122.0"
x2="1145"
y2="122.0"
stroke="#18304a"
stroke-dasharray="2 3"
/>


<text
x="680"
y="125.0"
text-anchor="end"
class="axis"
>
15
</text>


<line
x1="690"
y1="85.0"
x2="1145"
y2="85.0"
stroke="#18304a"
stroke-dasharray="2 3"
/>


<text
x="680"
y="88.0"
text-anchor="end"
class="axis"
>
19
</text>


<text
x="690.0"
y="292"
text-anchor="middle"
class="axis"
>
04
</text>


<text
x="765.8333333333334"
y="292"
text-anchor="middle"
class="axis"
>
09
</text>


<text
x="841.6666666666666"
y="292"
text-anchor="middle"
class="axis"
>
14
</text>


<text
x="917.5"
y="292"
text-anchor="middle"
class="axis"
>
19
</text>


<text
x="993.3333333333333"
y="292"
text-anchor="middle"
class="axis"
>
24
</text>


<text
x="1069.1666666666667"
y="292"
text-anchor="middle"
class="axis"
>
29
</text>


<text
x="1145.0"
y="292"
text-anchor="middle"
class="axis"
>
03
</text>


<polyline
points="690.0,231.1 705.2,260.3 720.3,250.5 735.5,260.3 750.7,270.0 765.8,201.8 781.0,250.5 796.2,240.8 811.3,211.6 826.5,172.6 841.7,240.8 856.8,250.5 872.0,260.3 887.2,240.8 902.3,231.1 917.5,270.0 932.7,250.5 947.8,85.0 963.0,250.5 978.2,260.3 993.3,270.0 1008.5,201.8 1023.7,172.6 1038.8,221.3 1054.0,201.8 1069.2,231.1 1084.3,201.8 1099.5,260.3 1114.7,250.5 1129.8,250.5 1145.0,270.0"
fill="none"
stroke="#2f81f7"
stroke-width="2.5"
stroke-linejoin="round"
stroke-linecap="round"
/>


<circle
cx="690.0"
cy="231.1"
r="3"
fill="#f0f6fc"
>
<title>
4 contributions
</title>
</circle>


<circle
cx="705.2"
cy="260.3"
r="3"
fill="#f0f6fc"
>
<title>
1 contributions
</title>
</circle>


<circle
cx="720.3"
cy="250.5"
r="3"
fill="#f0f6fc"
>
<title>
2 contributions
</title>
</circle>


<circle
cx="735.5"
cy="260.3"
r="3"
fill="#f0f6fc"
>
<title>
1 contributions
</title>
</circle>


<circle
cx="750.7"
cy="270.0"
r="3"
fill="#f0f6fc"
>
<title>
0 contributions
</title>
</circle>


<circle
cx="765.8"
cy="201.8"
r="3"
fill="#f0f6fc"
>
<title>
7 contributions
</title>
</circle>


<circle
cx="781.0"
cy="250.5"
r="3"
fill="#f0f6fc"
>
<title>
2 contributions
</title>
</circle>


<circle
cx="796.2"
cy="240.8"
r="3"
fill="#f0f6fc"
>
<title>
3 contributions
</title>
</circle>


<circle
cx="811.3"
cy="211.6"
r="3"
fill="#f0f6fc"
>
<title>
6 contributions
</title>
</circle>


<circle
cx="826.5"
cy="172.6"
r="3"
fill="#f0f6fc"
>
<title>
10 contributions
</title>
</circle>


<circle
cx="841.7"
cy="240.8"
r="3"
fill="#f0f6fc"
>
<title>
3 contributions
</title>
</circle>


<circle
cx="856.8"
cy="250.5"
r="3"
fill="#f0f6fc"
>
<title>
2 contributions
</title>
</circle>


<circle
cx="872.0"
cy="260.3"
r="3"
fill="#f0f6fc"
>
<title>
1 contributions
</title>
</circle>


<circle
cx="887.2"
cy="240.8"
r="3"
fill="#f0f6fc"
>
<title>
3 contributions
</title>
</circle>


<circle
cx="902.3"
cy="231.1"
r="3"
fill="#f0f6fc"
>
<title>
4 contributions
</title>
</circle>


<circle
cx="917.5"
cy="270.0"
r="3"
fill="#f0f6fc"
>
<title>
0 contributions
</title>
</circle>


<circle
cx="932.7"
cy="250.5"
r="3"
fill="#f0f6fc"
>
<title>
2 contributions
</title>
</circle>


<circle
cx="947.8"
cy="85.0"
r="3"
fill="#f0f6fc"
>
<title>
19 contributions
</title>
</circle>


<circle
cx="963.0"
cy="250.5"
r="3"
fill="#f0f6fc"
>
<title>
2 contributions
</title>
</circle>


<circle
cx="978.2"
cy="260.3"
r="3"
fill="#f0f6fc"
>
<title>
1 contributions
</title>
</circle>


<circle
cx="993.3"
cy="270.0"
r="3"
fill="#f0f6fc"
>
<title>
0 contributions
</title>
</circle>


<circle
cx="1008.5"
cy="201.8"
r="3"
fill="#f0f6fc"
>
<title>
7 contributions
</title>
</circle>


<circle
cx="1023.7"
cy="172.6"
r="3"
fill="#f0f6fc"
>
<title>
10 contributions
</title>
</circle>


<circle
cx="1038.8"
cy="221.3"
r="3"
fill="#f0f6fc"
>
<title>
5 contributions
</title>
</circle>


<circle
cx="1054.0"
cy="201.8"
r="3"
fill="#f0f6fc"
>
<title>
7 contributions
</title>
</circle>


<circle
cx="1069.2"
cy="231.1"
r="3"
fill="#f0f6fc"
>
<title>
4 contributions
</title>
</circle>


<circle
cx="1084.3"
cy="201.8"
r="3"
fill="#f0f6fc"
>
<title>
7 contributions
</title>
</circle>


<circle
cx="1099.5"
cy="260.3"
r="3"
fill="#f0f6fc"
>
<title>
1 contributions
</title>
</circle>


<circle
cx="1114.7"
cy="250.5"
r="3"
fill="#f0f6fc"
>
<title>
2 contributions
</title>
</circle>


<circle
cx="1129.8"
cy="250.5"
r="3"
fill="#f0f6fc"
>
<title>
2 contributions
</title>
</circle>


<circle
cx="1145.0"
cy="270.0"
r="3"
fill="#f0f6fc"
>
<title>
0 contributions
</title>
</circle>

</svg>